<?xml version="1.0" encoding="utf-8"?>
<!-- Generator: Adobe Illustrator 27.5.0, SVG Export Plug-In . SVG Version: 6.00 Build 0)  -->
<svg version="1.1" xmlns="http://www.w3.org/2000/svg" xmlns:xlink="http://www.w3.org/1999/xlink" x="0px" y="0px"
	 viewBox="0 0 2500 2500" style="enable-background:new 0 0 2500 2500;" xml:space="preserve">
<g id="Background">
	<rect style="fill:#ffffff00;" width="2500" height="2500"/>
</g>
<g id="Illustration">
	<g id="Big_data_architecture_1_">
		<circle style="fill:#F2E6DC;" cx="1250" cy="1250" r="915"/>
		<g>
			<path style="fill:#D3BBA3;" d="M1426.155,1610.601c-67.871,0-133.713-13.293-195.696-39.51
				c-59.868-25.322-113.635-61.572-159.808-107.745c-46.172-46.172-82.422-99.939-107.744-159.807
				c-26.217-61.983-39.51-127.825-39.51-195.696s13.293-133.713,39.51-195.697c25.322-59.868,61.572-113.635,107.744-159.807
				c46.173-46.172,99.939-82.423,159.808-107.745c61.983-26.216,127.825-39.51,195.696-39.51c99.291,0,195.313,28.902,277.688,83.58
				c80.328,53.32,143.354,127.966,182.266,215.867c0.224,0.505-0.004,1.096-0.509,1.319c-0.509,0.224-1.097-0.005-1.319-0.509
				c-80.206-181.184-260.03-298.257-458.125-298.257c-276.119,0-500.758,224.639-500.758,500.758s224.639,500.758,500.758,500.758
				c215.345,0,406.126-137.04,474.735-341.005c0.177-0.522,0.744-0.806,1.267-0.629c0.524,0.176,0.806,0.743,0.63,1.267
				c-16.558,49.224-40.633,95.471-71.557,137.457c-30.563,41.497-67.159,77.954-108.77,108.358
				C1636.016,1577.214,1533.555,1610.601,1426.155,1610.601z"/>
			<path style="fill:#D3BBA3;" d="M1426.155,1543.491c-3.829,0-7.712-0.051-11.543-0.15c-0.552-0.014-0.987-0.474-0.974-1.025
				c0.015-0.543,0.459-0.974,0.999-0.974c0.01,0,0.019,0,0.027,0c3.813,0.099,7.679,0.149,11.49,0.149
				c174.678,0,331.519-103.961,399.57-264.853c0.215-0.51,0.804-0.745,1.311-0.531c0.509,0.215,0.746,0.802,0.531,1.311
				c-32.944,77.89-87.523,144.169-157.837,191.671C1597.683,1517.763,1513.456,1543.491,1426.155,1543.491z"/>
			<path style="fill:#D3BBA3;" d="M1800.66,888.104c-0.342,0-0.676-0.176-0.862-0.492
				c-77.759-131.641-220.931-213.417-373.643-213.417c-1.416,0-2.831,0.007-4.244,0.02c-0.004,0-0.007,0-0.01,0
				c-0.548,0-0.995-0.441-1-0.99c-0.005-0.552,0.438-1.004,0.99-1.01c1.421-0.013,2.842-0.02,4.264-0.02
				c77.144,0,152.94,20.429,219.196,59.079c64.302,37.51,118.304,91.219,156.169,155.321c0.28,0.475,0.123,1.089-0.353,1.37
				C1801.008,888.059,1800.833,888.104,1800.66,888.104z"/>
			<path style="fill:#D3BBA3;" d="M1014.093,970.186c-0.105,0-0.213-0.017-0.318-0.053c-0.523-0.176-0.806-0.743-0.63-1.267
				c22.561-67.07,61.786-128.388,113.438-177.324c51.813-49.088,115.37-84.981,183.805-103.797c0.523-0.147,1.082,0.166,1.229,0.699
				c0.146,0.532-0.166,1.083-0.699,1.229c-139.204,38.276-249.813,142.885-295.875,279.831
				C1014.9,969.923,1014.511,970.186,1014.093,970.186z"/>
			
				<ellipse transform="matrix(0.7071 -0.7071 0.7071 0.7071 -30.4993 1517.3202)" style="fill:#FFFFFF;" cx="1816.318" cy="795.476" rx="46.993" ry="46.993"/>
			<path style="fill:#D3BBA3;" d="M1816.317,796.476c-0.256,0-0.512-0.098-0.707-0.293c-0.391-0.39-0.391-1.024,0-1.414
				l226.382-226.381c0.188-0.188,0.441-0.293,0.707-0.293H2165c0.553,0,1,0.448,1,1c0,0.552-0.447,1-1,1h-121.887l-226.089,226.089
				C1816.829,796.378,1816.573,796.476,1816.317,796.476z"/>
			
				<ellipse transform="matrix(0.7071 -0.7071 0.7071 0.7071 -30.4993 1517.3202)" style="fill:#FFFFFF;" cx="1816.318" cy="795.476" rx="46.993" ry="46.993"/>
			<g>
				
					<ellipse transform="matrix(0.1974 -0.9803 0.9803 0.1974 1082.1975 2453.9719)" style="fill:#FFFFFF;" cx="2039.707" cy="566.102" rx="46.993" ry="46.992"/>
				<path style="fill:#D3BBA3;" d="M2039.707,614.095c-26.463,0-47.992-21.529-47.992-47.993c0-26.463,21.529-47.992,47.992-47.992
					c26.464,0,47.993,21.529,47.993,47.992C2087.7,592.565,2066.171,614.095,2039.707,614.095z M2039.707,520.11
					c-25.36,0-45.992,20.632-45.992,45.992c0,25.36,20.632,45.993,45.992,45.993s45.993-20.632,45.993-45.993
					C2085.7,540.742,2065.067,520.11,2039.707,520.11z"/>
			</g>
			<path style="fill:#D3BBA3;" d="M2086.7,1793.898h-291.907c-0.266,0-0.52-0.105-0.707-0.293L1588.981,1588.5
				c-0.391-0.391-0.391-1.023,0-1.414s1.023-0.391,1.414,0l204.812,204.812H2086.7c0.553,0,1,0.448,1,1
				S2087.253,1793.898,2086.7,1793.898z"/>
			
				<ellipse transform="matrix(0.1602 -0.9871 0.9871 0.1602 -232.2422 2902.6189)" style="fill:#FFFFFF;" cx="1589.688" cy="1587.793" rx="46.993" ry="46.993"/>
			
				<ellipse transform="matrix(0.1602 -0.9871 0.9871 0.1602 -267.2998 3271.6228)" style="fill:#FFFFFF;" cx="1789.016" cy="1792.898" rx="46.993" ry="46.993"/>
			
				<ellipse transform="matrix(0.2298 -0.9732 0.9732 0.2298 -137.6614 3411.8535)" style="fill:#E6D0BE;" cx="2086.7" cy="1792.898" rx="46.993" ry="46.993"/>
			<path style="fill:#D3BBA3;" d="M2086.75,1396.684h-248.556c-0.553,0-1-0.448-1-1s0.447-1,1-1h248.556c0.553,0,1,0.448,1,1
				S2087.303,1396.684,2086.75,1396.684z"/>
			
				<ellipse transform="matrix(0.7071 -0.7071 0.7071 0.7071 -375.7027 1884.3412)" style="fill:#E6D0BE;" cx="2086.75" cy="1395.684" rx="46.993" ry="46.993"/>
			
				<ellipse transform="matrix(0.0625 -0.998 0.998 0.0625 330.345 3143.0481)" style="fill:#FFFFFF;" cx="1838.194" cy="1395.684" rx="46.993" ry="46.992"/>
			<path style="fill:#D3BBA3;" d="M1361.235,612.603c-0.256,0-0.512-0.098-0.707-0.293l-160.991-160.991H647.62
				c-0.553,0-1-0.448-1-1c0-0.552,0.447-1,1-1h552.331c0.266,0,0.52,0.105,0.707,0.293l161.284,161.284
				c0.391,0.39,0.391,1.024,0,1.414C1361.747,612.505,1361.491,612.603,1361.235,612.603z"/>
			
				<ellipse transform="matrix(0.1251 -0.9921 0.9921 0.1251 584.1047 1885.6075)" style="fill:#FFFFFF;" cx="1361.235" cy="611.603" rx="46.992" ry="46.993"/>
			<g>
				<circle style="fill:#F2E6DC;" cx="1196.13" cy="450.319" r="46.993"/>
				<path style="fill:#D3BBA3;" d="M1196.13,498.312c-26.463,0-47.992-21.529-47.992-47.993c0-26.463,21.529-47.993,47.992-47.993
					s47.992,21.529,47.992,47.993C1244.122,476.783,1222.593,498.312,1196.13,498.312z M1196.13,404.326
					c-25.36,0-45.992,20.632-45.992,45.993c0,25.36,20.632,45.993,45.992,45.993s45.992-20.632,45.992-45.993
					C1242.122,424.959,1221.49,404.326,1196.13,404.326z"/>
			</g>
			<circle style="fill:#E6D0BE;" cx="647.62" cy="450.319" r="46.993"/>
			<path style="fill:#D3BBA3;" d="M974.743,749.483c-0.256,0-0.512-0.098-0.707-0.293L802.908,578.063H516.224c-0.553,0-1-0.448-1-1
				s0.447-1,1-1h287.099c0.266,0,0.519,0.105,0.707,0.293L975.45,747.776c0.391,0.39,0.391,1.024,0,1.414
				C975.255,749.386,974.999,749.483,974.743,749.483z"/>
			<path style="fill:#D3BBA3;" d="M941.63,976.809c-0.256,0-0.512-0.098-0.707-0.293L755.432,791.025H447.596c-0.553,0-1-0.448-1-1
				s0.447-1,1-1h308.25c0.266,0,0.519,0.105,0.707,0.293l185.784,185.784c0.391,0.39,0.391,1.024,0,1.414
				C942.142,976.712,941.886,976.809,941.63,976.809z"/>
			
				<ellipse transform="matrix(0.0575 -0.9983 0.9983 0.0575 -369.3013 1188.8792)" style="fill:#E6D0BE;" cx="444.992" cy="790.025" rx="46.993" ry="46.993"/>
			
				<ellipse transform="matrix(0.999 -0.0448 0.0448 0.999 -42.7797 43.1741)" style="fill:#FFFFFF;" cx="941.63" cy="975.809" rx="46.993" ry="46.993"/>
			<path style="fill:#D3BBA3;" d="M896.675,1769.369H476.71c-0.553,0-1-0.448-1-1s0.447-1,1-1h419.551l248.03-248.03
				c0.391-0.391,1.023-0.391,1.414,0s0.391,1.023,0,1.414l-248.323,248.323C897.194,1769.263,896.94,1769.369,896.675,1769.369z"/>
			
				<ellipse transform="matrix(0.4027 -0.9153 0.9153 0.4027 -707.4213 1956.0507)" style="fill:#FFFFFF;" cx="1144.998" cy="1520.045" rx="46.993" ry="46.993"/>
		</g>
		<path style="fill:#FFFFFF;" d="M1651.121,933.842c-27.368,0-52.308,10.378-71.111,27.409c0.264-4.178,0.413-8.388,0.413-12.633
			c0-108.885-88.268-197.154-197.153-197.154c-108.884,0-197.153,88.269-197.153,197.154c0,21.15,3.344,41.516,9.509,60.614
			c-8.009-3.147-16.72-4.894-25.846-4.894c-39.056,0-70.717,31.661-70.717,70.717c0,39.056,31.661,70.716,70.717,70.716
			c36.039,0,157.01,0,213.49,0c68.126,0,215.772,0,267.85,0c58.522,0,105.964-47.442,105.964-105.964
			C1757.085,981.283,1709.643,933.842,1651.121,933.842z"/>
		<g>
			<polygon style="fill:#E6D0BE;" points="599.157,954.902 454.533,954.902 382.221,1080.15 454.533,1205.399 599.157,1205.399 
				671.469,1080.15 			"/>
			<g>
				<path style="fill:#FFFFFF;" d="M526.845,1149.95c-26.906,0-48.796-21.89-48.796-48.796v-37.257c0-0.552,0.447-1,1-1h95.593
					c0.553,0,1,0.448,1,1v37.257C575.642,1128.06,553.751,1149.95,526.845,1149.95z M480.049,1064.897v36.257
					c0,25.804,20.992,46.796,46.796,46.796c25.804,0,46.797-20.993,46.797-46.796v-36.257H480.049z M530.66,1124.881h-7.63
					c-0.553,0-1-0.448-1-1v-19.491c-4.299-1.896-7.142-6.204-7.142-10.933c0-6.593,5.363-11.957,11.956-11.957
					c6.593,0,11.957,5.364,11.957,11.957c0,4.729-2.842,9.037-7.142,10.933v19.491
					C531.66,1124.433,531.213,1124.881,530.66,1124.881z M524.03,1122.881h5.63v-19.164c0-0.418,0.26-0.792,0.651-0.937
					c3.882-1.444,6.49-5.19,6.49-9.323c0-5.49-4.467-9.957-9.957-9.957c-5.49,0-9.956,4.467-9.956,9.957
					c0,4.133,2.608,7.879,6.49,9.323c0.392,0.146,0.651,0.519,0.651,0.937V1122.881z"/>
				<path style="fill:#FFFFFF;" d="M569.377,1054.881c-0.553,0-1-0.448-1-1c0-22.9-18.631-41.531-41.532-41.531
					c-22.9,0-41.531,18.631-41.531,41.531c0,0.552-0.447,1-1,1c-0.553,0-1-0.448-1-1c0-24.003,19.528-43.531,43.531-43.531
					c24.004,0,43.532,19.528,43.532,43.531C570.377,1054.434,569.93,1054.881,569.377,1054.881z"/>
			</g>
		</g>
		<g>
			<g>
				
					<ellipse transform="matrix(0.7071 -0.7071 0.7071 0.7071 -914.6135 1643.725)" style="fill:#FFFFFF;" cx="1526.845" cy="1925.899" rx="189.002" ry="189.002"/>
				<path style="fill:#D3BBA3;" d="M1526.845,2155.996c-61.461,0-119.243-23.934-162.703-67.394
					c-43.459-43.459-67.394-101.242-67.394-162.703s23.935-119.244,67.394-162.703c43.46-43.46,101.242-67.394,162.703-67.394
					s119.244,23.934,162.704,67.394c43.459,43.459,67.394,101.242,67.394,162.703s-23.935,119.244-67.394,162.703
					C1646.089,2132.062,1588.306,2155.996,1526.845,2155.996z M1526.845,1697.801c-125.773,0-228.097,102.324-228.097,228.097
					s102.323,228.097,228.097,228.097s228.098-102.324,228.098-228.097S1652.618,1697.801,1526.845,1697.801z"/>
			</g>
			<g>
				<path style="fill:#363E44;" d="M1778.76,2030.673h-351.686v-226.016h351.686V2030.673z M1429.074,2028.673h347.686v-222.016
					h-347.686V2028.673z"/>
				<rect x="1436.447" y="1813.975" style="fill:#363E44;" width="332.939" height="186.927"/>
				<path style="fill:#363E44;" d="M1766.739,2062.466h-327.645c-12.078,0-21.905-9.827-21.905-21.906v-1h371.454v1
					C1788.644,2052.639,1778.817,2062.466,1766.739,2062.466z M1419.214,2041.56c0.523,10.513,9.24,18.906,19.881,18.906h327.645
					c10.64,0,19.356-8.393,19.88-18.906H1419.214z"/>
				<path style="fill:#363E44;" d="M1628.085,2049.187h-50.336c-0.553,0-1-0.448-1-1s0.447-1,1-1h50.336c0.553,0,1,0.448,1,1
					S1628.638,2049.187,1628.085,2049.187z"/>
			</g>
		</g>
		<g>
			
				<ellipse transform="matrix(0.7071 -0.7071 0.7071 0.7071 88.6406 1334.8257)" style="fill:#FFFFFF;" cx="1655.597" cy="560.414" rx="209.98" ry="209.98"/>
			<g>
				
					<ellipse transform="matrix(0.7071 -0.7071 0.7071 0.7071 84.1294 1323.9344)" style="fill:#8B865C;" cx="1640.195" cy="560.414" rx="165.631" ry="165.631"/>
				<g>
					<path style="fill:#D3BBA3;" d="M1664.201,727.045c-0.324,0-0.649-0.001-0.975-0.003
						c-91.879-0.529-166.197-75.709-165.669-167.588c0.256-44.508,17.829-86.252,49.482-117.543
						c31.418-31.058,72.98-48.128,117.118-48.128c0.331,0,0.656,0.001,0.987,0.003c91.879,0.529,166.197,75.708,165.669,167.588
						C1830.287,652.927,1755.636,727.045,1664.201,727.045z M1664.159,395.783c-43.611,0-84.67,16.864-115.713,47.551
						c-31.273,30.915-48.636,72.158-48.889,116.132c-0.522,90.776,72.904,165.054,163.681,165.576
						c0.315,0.002,0.647,0.003,0.963,0.003c90.345,0,164.092-73.223,164.613-163.684l1,0.006l-1-0.006
						c0.522-90.776-72.904-165.054-163.681-165.576C1664.81,395.784,1664.483,395.783,1664.159,395.783z"/>
					<path style="fill:#D3BBA3;" d="M1664.476,481.07c-46.039,0-91.293-7.752-130.872-22.419c-0.518-0.192-0.782-0.767-0.59-1.285
						c0.192-0.518,0.766-0.782,1.285-0.59c39.358,14.585,84.373,22.294,130.177,22.294c45.453,0,90.167-7.598,129.309-21.973
						c0.519-0.191,1.093,0.076,1.283,0.594s-0.075,1.093-0.594,1.283C1755.114,473.429,1710.161,481.07,1664.476,481.07z"/>
					<path style="fill:#D3BBA3;" d="M1532.436,661.821c-0.404,0-0.785-0.247-0.936-0.648c-0.195-0.517,0.066-1.094,0.583-1.288
						c39.958-15.038,85.738-22.987,132.393-22.987c46.405,0,91.971,7.868,131.772,22.754c0.517,0.194,0.779,0.77,0.586,1.287
						c-0.193,0.517-0.77,0.78-1.287,0.586c-39.579-14.803-84.903-22.627-131.071-22.627c-46.416,0-91.953,7.904-131.688,22.859
						C1532.672,661.8,1532.553,661.821,1532.436,661.821z"/>
					<path style="fill:#D3BBA3;" d="M1664.186,727.045c-23.361,0-45.271-17.42-61.693-49.051
						c-16.314-31.423-25.3-73.181-25.3-117.58c0-44.399,8.985-86.156,25.3-117.58c16.422-31.631,38.332-49.051,61.693-49.051
						s45.271,17.42,61.694,49.051c16.314,31.423,25.3,73.18,25.3,117.58c0,44.399-8.985,86.156-25.3,117.58
						C1709.457,709.625,1687.547,727.045,1664.186,727.045z M1664.186,395.783c-46.865,0-84.993,73.853-84.993,164.631
						c0,90.778,38.128,164.631,84.993,164.631c46.866,0,84.994-73.853,84.994-164.631
						C1749.18,469.636,1711.052,395.783,1664.186,395.783z"/>
					<path style="fill:#D3BBA3;" d="M1664.186,726.825c-0.553,0-1-0.448-1-1V395.136c0-0.552,0.447-1,1-1s1,0.448,1,1v330.689
						C1665.186,726.377,1664.738,726.825,1664.186,726.825z"/>
					<path style="fill:#D3BBA3;" d="M1829.853,561.7c-0.003,0-0.005,0-0.008,0l-331.396-2.583c-0.553-0.004-0.996-0.456-0.992-1.008
						c0.004-0.55,0.451-0.992,1-0.992c0.003,0,0.005,0,0.008,0l331.396,2.583c0.553,0.004,0.996,0.456,0.992,1.008
						C1830.849,561.257,1830.401,561.7,1829.853,561.7z"/>
				</g>
			</g>
		</g>
		<g>
			<path style="opacity:0.6;fill:#FFFFFF;" d="M1700.212,1228.475h-289.689c-33.228,0-60.164,26.937-60.164,60.165l0,0
				c0,33.228,26.936,60.164,60.164,60.164h289.689c33.228,0,60.164-26.937,60.164-60.164l0,0
				C1760.376,1255.412,1733.44,1228.475,1700.212,1228.475z"/>
			<g>
				
					<ellipse transform="matrix(0.8475 -0.5307 0.5307 0.8475 -434.6409 1031.7621)" style="fill:#8B865C;" cx="1578.525" cy="1272.4" rx="28.964" ry="28.964"/>
				
					<ellipse transform="matrix(0.7071 -0.7071 0.7071 0.7071 -460.9027 1432.0831)" style="fill:#8B865C;" cx="1498.226" cy="1272.4" rx="28.964" ry="28.964"/>
				
					<ellipse transform="matrix(0.9225 -0.3861 0.3861 0.9225 -381.3139 646.1)" style="fill:#8B865C;" cx="1417.927" cy="1272.4" rx="28.964" ry="28.964"/>
			</g>
			<path style="fill:#D3BBA3;" d="M1681.77,1333.565H1392.08c-33.726,0-61.164-27.438-61.164-61.165
				c0-33.726,27.438-61.165,61.164-61.165h289.689c33.727,0,61.165,27.438,61.165,61.165
				C1742.935,1306.126,1715.496,1333.565,1681.77,1333.565z M1392.08,1213.236c-32.623,0-59.164,26.541-59.164,59.165
				s26.541,59.165,59.164,59.165h289.689c32.624,0,59.165-26.541,59.165-59.165s-26.541-59.165-59.165-59.165H1392.08z"/>
		</g>
		<g>
			<g>
				<path style="fill:#EFBC73;" d="M1099.382,1569.407c0,0,63.213,172.995,194.13,172.995c93.811,0,141.525-62.986,151.545-153.162
					c10.889-98.002-138.406-255.546-320.436-402.562C1124.621,1186.678,1061.059,1426.384,1099.382,1569.407z"/>
				<g>
					<path style="fill:#EFBC73;" d="M658.522,1559.182c0,0-91.446,233.372-225.575,145.088
						c-239.654-157.74,13.266-394.267,196.212-487.08c238.085-120.787,410.327-55.62,495.462-30.511l-15.246,503.504
						c-1.437,47.446-40.314,85.164-87.782,85.164H709.994c-59.39,0-101.656-57.722-83.723-114.341L658.522,1559.182z"/>
					<path style="fill:#363E44;" d="M621.322,1406.492c-0.083,0-0.168-0.011-0.252-0.033c-0.535-0.139-0.856-0.685-0.717-1.219
						l15.675-60.378c0.139-0.534,0.686-0.856,1.219-0.716c0.535,0.139,0.855,0.685,0.717,1.219l-15.675,60.378
						C622.172,1406.193,621.767,1406.492,621.322,1406.492z"/>
					<path style="fill:#363E44;" d="M1110.865,1642.027c-0.011,0-0.021,0-0.031,0c-0.552-0.017-0.986-0.478-0.97-1.03l2.168-71.62
						c0.018-0.552,0.496-0.989,1.03-0.969c0.552,0.017,0.986,0.478,0.97,1.03l-2.168,71.62
						C1111.848,1641.599,1111.403,1642.027,1110.865,1642.027z"/>
				</g>
				<g>
					<g>
						<path style="fill:#84524D;" d="M486.981,1466.456c0,0,163.623-68.461,251.245-102.489
							c151.823-58.961,239.252-42.649,239.357-20.821c0.114,23.688-45.427,10.181-67.141,17.069
							c3.524,1.74,12.807,8.873,13.27,20.582c0.685,17.327-11.989,22.744-12.945,23.711c1.239,0.486,14.456,6.117,16.739,17.631
							c2.571,12.97-2.746,22.949-10.636,28.968c3.04,1.308,13.801,7.36,15.692,18.497c1.945,11.455-3.75,24.935-14.529,28.542
							c-19.773,6.617-78.886,25.072-106.637,37.828c-54.61,25.101-237.427,142.262-325.262,156.082
							c-65.849,2.625-96.461-89.293-68.99-161.783C434.432,1484.656,486.981,1466.456,486.981,1466.456z"/>
						<g>
							<path style="fill:#363E44;" d="M893.098,1494.872c-0.482,0-0.905-0.348-0.985-0.838l-3.049-18.555
								c-0.09-0.545,0.279-1.059,0.824-1.149c0.55-0.088,1.06,0.28,1.148,0.825l3.049,18.555c0.09,0.545-0.279,1.059-0.824,1.149
								C893.206,1494.867,893.151,1494.872,893.098,1494.872z"/>
							<path style="fill:#363E44;" d="M884.983,1450.266c-0.493,0-0.923-0.365-0.99-0.867l-2.829-21.084
								c-0.073-0.547,0.31-1.05,0.858-1.124c0.548-0.073,1.051,0.311,1.124,0.858l2.829,21.084c0.073,0.547-0.311,1.05-0.858,1.124
								C885.072,1450.263,885.027,1450.266,884.983,1450.266z"/>
							<path style="fill:#363E44;" d="M879.446,1402.788c-0.48,0-0.904-0.347-0.985-0.837c-0.572-3.462-1.066-6.591-1.559-9.72
								c-0.494-3.126-0.987-6.253-1.559-9.712c-0.09-0.545,0.278-1.06,0.823-1.15c0.55-0.087,1.059,0.279,1.149,0.824
								c0.572,3.465,1.066,6.596,1.562,9.727c0.492,3.124,0.985,6.249,1.557,9.706c0.09,0.545-0.278,1.06-0.823,1.15
								C879.555,1402.783,879.5,1402.788,879.446,1402.788z"/>
							<path style="fill:#363E44;" d="M871.402,1364.243c-0.453,0-0.863-0.31-0.973-0.77l-4.28-18.13
								c-0.127-0.538,0.206-1.076,0.744-1.203c0.535-0.129,1.075,0.206,1.203,0.743l4.28,18.13c0.127,0.538-0.206,1.076-0.744,1.203
								C871.556,1364.234,871.479,1364.243,871.402,1364.243z"/>
						</g>
					</g>
				</g>
				<g>
					<path style="fill:#84524D;" d="M1135.225,1431.575l76.175,192.411c20.618,52.078,80.068,76.971,131.641,55.119l0,0
						c55.976-23.717,77.892-91.567,46.368-143.548l-105.779-174.42L1135.225,1431.575z"/>
					<g>
						<g>
							<path style="fill:#E6D0BE;" d="M958.56,1510.297c-0.111,0-0.225-0.019-0.336-0.059c-0.52-0.185-0.791-0.757-0.606-1.277
								l104.038-292.107c0.144-0.401,0.484-0.653,0.951-0.665l228.083,1.995c0.552,0.005,0.996,0.457,0.991,1.009
								c-0.005,0.549-0.452,0.991-1,0.991c-0.003,0-0.006,0-0.009,0l-227.371-1.989l-103.799,291.436
								C959.356,1510.042,958.972,1510.297,958.56,1510.297z"/>
						</g>
						<g>
							<polygon style="fill:#363E44;" points="1203.785,1529.241 975.701,1529.241 1079.739,1237.134 1307.823,1237.134 							"/>
						</g>
					</g>
					<g>
						<path style="fill:#84524D;" d="M1233.874,1426.154c20.116,11.449,22.551,24.854,16.178,36.051
							c-6.373,11.198-19.142,15.949-39.258,4.5c-20.116-11.449-39.963-34.764-33.589-45.962
							C1183.577,1409.546,1213.757,1414.705,1233.874,1426.154z"/>
						<path style="fill:#84524D;" d="M1251.505,1384.923c23.315,13.27,26.137,28.805,18.75,41.784
							c-7.387,12.979-22.186,18.485-45.501,5.215c-23.315-13.27-46.318-40.292-38.931-53.271
							C1193.211,1365.673,1228.191,1371.653,1251.505,1384.923z"/>
						<path style="fill:#84524D;" d="M1270.838,1361.208c20.116,11.449,32.884,6.698,39.258-4.5
							c6.374-11.198,3.939-24.602-16.178-36.052c-20.116-11.449-50.296-16.608-56.67-5.41
							C1230.875,1326.444,1250.722,1349.758,1270.838,1361.208z"/>
						<path style="fill:#84524D;" d="M1244.391,1397.422c23.315,13.27,38.114,7.763,45.501-5.215
							c7.387-12.979,4.565-28.514-18.75-41.784c-23.315-13.27-58.294-19.249-65.681-6.271
							C1198.074,1357.13,1221.076,1384.152,1244.391,1397.422z"/>
						<path style="fill:#363E44;" d="M1231.569,1474.293c-0.821,0-1.658-0.038-2.513-0.115c-0.55-0.05-0.956-0.536-0.906-1.086
							c0.05-0.55,0.54-0.949,1.086-0.906c8.71,0.788,15.599-2.837,19.945-10.476c4.165-7.315,3.959-14.8-0.595-21.645
							c-0.201-0.304-0.223-0.693-0.054-1.017c0.169-0.323,0.5-0.529,0.865-0.537c8.604-0.187,15.516-4.439,19.988-12.299
							c3.97-6.977,4.521-14.244,1.59-21.014c-0.125-0.288-0.106-0.619,0.049-0.892s0.431-0.457,0.742-0.497
							c7.318-0.939,13.285-5.122,17.255-12.098c0.273-0.48,0.886-0.648,1.363-0.375c0.48,0.273,0.648,0.884,0.375,1.364
							c-4.062,7.138-10.081,11.575-17.467,12.897c2.635,7.023,1.894,14.464-2.169,21.604c-4.539,7.976-11.417,12.52-19.963,13.221
							c4.101,7.111,4.026,14.779-0.242,22.277C1246.584,1470.321,1239.927,1474.293,1231.569,1474.293z"/>
					</g>
				</g>
			</g>
			<g>
				
					<ellipse transform="matrix(0.9981 -0.0613 0.0613 0.9981 -57.7658 57.4309)" style="fill:#363E44;" cx="907.203" cy="970.259" rx="110.145" ry="110.145"/>
				<path style="fill:#84524D;" d="M983.282,1025.16L983.282,1025.16c-13.938-7.7-37.818-28.267-45.518-14.329l-90.361,144.504
					c-7.7,13.938,38.523,9.087,52.461,16.788l0,0c13.938,7.7,31.479,2.644,39.18-11.294l55.532-96.489
					C1002.276,1050.402,997.22,1032.86,983.282,1025.16z"/>
				<path style="fill:#84524D;" d="M972.854,1166.498c12.489,45.738-23.459,114.935-23.459,114.935s-132.377-64.243-132.377-114.935
					c0-12.956,34.885-23.459,77.918-23.459C937.969,1143.039,969.441,1153.999,972.854,1166.498z"/>
				<g>
					<path style="fill:#84524D;" d="M1056.217,1064.916c-12.502,23.397-85.786,13.338-85.786,13.338l-63.909-49.839
						c-16.652-33.398-3.076-73.97,30.322-90.622c33.398-16.652,73.971-3.075,90.622,30.322
						C1027.467,968.115,1068.951,1041.086,1056.217,1064.916z"/>
					<path style="fill:#84524D;" d="M1028.445,987.481c0,0,25.822,9.314,27.259,14.456c1.715,6.137-15.476,18.973-15.476,18.973
						S1028.918,987.299,1028.445,987.481z"/>
					<g>
						<path style="fill:#FFFFFF;" d="M972.582,1012.102c0,0,7.409-10.493,19.614-16.577c2.596-1.294,8.058,21.926,5.006,21.979
							C983.785,1017.733,972.582,1012.102,972.582,1012.102z"/>
						<g>
							<defs>
								<path id="SVGID_1_" d="M972.582,1012.102c0,0,10.897-15.433,28.029-19.718c17.132-4.286,34.011,4.199,34.011,4.199
									s-10.897,15.432-28.029,19.718C989.461,1020.587,972.582,1012.102,972.582,1012.102z"/>
							</defs>
							<clipPath id="SVGID_00000003094332065502795540000016529595359574998437_">
								<use xlink:href="#SVGID_1_"  style="overflow:visible;"/>
							</clipPath>
							<path style="clip-path:url(#SVGID_00000003094332065502795540000016529595359574998437_);fill:#363E44;" d="M992.445,994.733
								c4.047-12.096,17.134-18.621,29.23-14.573c12.096,4.047,18.621,17.134,14.574,29.23
								c-4.047,12.096-17.134,18.621-29.23,14.573C994.923,1019.916,988.398,1006.829,992.445,994.733z"/>
						</g>
					</g>
					<path style="fill:#363E44;" d="M1026.26,1040.839c-0.389,0-0.78-0.022-1.172-0.066c-3.929-0.447-7.337-3.155-8.681-6.899
						c-0.187-0.52,0.084-1.093,0.603-1.279c0.516-0.187,1.093,0.083,1.279,0.603c1.089,3.033,3.846,5.227,7.024,5.588
						c3.294,0.374,6.537-1.241,8.249-4.116c0.283-0.474,0.896-0.63,1.371-0.348s0.63,0.896,0.348,1.371
						C1033.372,1038.901,1029.919,1040.839,1026.26,1040.839z"/>
				</g>
				<path style="fill:#363E44;" d="M858.367,1040.701c0,0,94.955,4.19,154.999-90.765c60.045-94.954-104.729-89.369-173.152-57.252
					C796.389,913.255,858.367,1040.701,858.367,1040.701z"/>
				<path style="fill:#40484C;" d="M881.981,1116.488c-2.922,0-4.835-0.297-5.058-0.333c-0.545-0.089-0.914-0.603-0.825-1.147
					c0.088-0.546,0.611-0.915,1.146-0.827c0.156,0.025,15.577,2.39,27.498-7.165c8.451-6.775,13.184-17.83,14.068-32.86
					c1.323-22.49-14.984-35.289-25.775-43.759c-6.411-5.032-11.043-8.668-10.241-12.58c0.781-3.818,6.656-6.861,20.275-10.505
					c52.293-13.991,82.566-75.346,82.866-75.964c0.241-0.497,0.839-0.704,1.336-0.464c0.497,0.241,0.704,0.839,0.463,1.336
					c-0.304,0.626-30.982,62.799-84.147,77.023c-12.268,3.282-18.252,6.134-18.834,8.975c-0.554,2.701,3.891,6.189,9.518,10.606
					c11.118,8.727,27.921,21.915,26.536,45.45c-0.919,15.629-5.909,27.175-14.832,34.317
					C897.574,1115.314,887.787,1116.488,881.981,1116.488z"/>
				<g>
					<path style="fill:#363E44;" d="M937.378,917.578c0,0-40.041-192.252-99.853-172.827
						C777.714,764.176,893.897,936.49,937.378,917.578z"/>
					<path style="fill:#363E44;" d="M898.153,935.213c0,0-85.806-226.354-158.558-191.165
						C666.843,779.238,846.129,966.627,898.153,935.213z"/>
					<path style="fill:#363E44;" d="M881.318,934.895c0,0-192.872-205.796-251.687-137.248
						C570.816,866.195,842.142,990.602,881.318,934.895z"/>
					<path style="fill:#363E44;" d="M846.797,962.279c0,0-172.523-134.118-212.052-72.803
						C595.216,950.792,821.468,1010.942,846.797,962.279z"/>
					<path style="fill:#363E44;" d="M737.248,971.749c-39.54,0-77.18-7.393-93.639-23.31c-8.222-7.951-10.835-17.472-7.769-28.299
						c2.774-9.798,9.241-17.307,19.221-22.318c23.195-11.647,64.965-10.25,124.145,4.155c43.967,10.702,81.647,24.993,82.023,25.136
						l0.778,0.297l-0.151,0.82c-2.392,12.902-17.014,23.992-42.286,32.072C796.163,967.784,766.195,971.749,737.248,971.749z
						 M696.866,892.12c-16.041,0-30.272,2.149-40.908,7.489c-9.456,4.749-15.577,11.839-18.193,21.075
						c-2.85,10.064-0.416,18.918,7.234,26.316c28.048,27.124,119.099,28.936,173.962,11.396
						c16.798-5.37,37.339-14.856,40.759-29.713C850.25,925.158,759.731,892.12,696.866,892.12z"/>
					<path style="fill:#363E44;" d="M864.06,921.835c-11.185,0-25.185-6.877-41.108-20.295
						c-44.459-37.466-91.764-116.482-83.592-155.291c2.356-11.191,9.027-18.471,19.826-21.636c9.771-2.865,19.57-1.385,29.123,4.398
						c22.206,13.442,43.249,49.549,62.546,107.32c14.336,42.92,22.287,82.427,22.365,82.821l0.163,0.818l-0.774,0.308
						C869.983,921.317,867.126,921.835,864.06,921.835z M768.848,725.199c-3.033,0-6.068,0.443-9.1,1.332
						c-10.037,2.942-16.238,9.715-18.432,20.129c-8.039,38.178,38.877,116.231,82.924,153.35
						c13.486,11.365,32.444,23.708,46.848,18.698c-2.58-12.417-33.739-157.675-83.815-187.988
						C781.199,727.044,775.03,725.199,768.848,725.199z"/>
					<path style="fill:#363E44;" d="M916.948,893.965c0,0-30.641-89.989,14.181-86.797
						C975.95,810.36,916.948,893.965,916.948,893.965z"/>
					<path style="fill:#363E44;" d="M816.656,961.751c0,0-122.179-27.215-108.456,36.161
						C721.924,1061.288,816.656,961.751,816.656,961.751z"/>
				</g>
			</g>
			<path style="opacity:0.6;fill:#FFFFFF;" d="M497.483,1443.901c4.662-2.112-79.43,172.058,41.721,232.669
				c0,0-41.337,29.58-91.092,15.54C398.356,1678.07,346.463,1512.312,497.483,1443.901z"/>
			<path style="opacity:0.6;fill:#FFFFFF;" d="M1193.262,1617.629c0,0,161.378,62.212,194.062-108.333l27.971,66.585
				c0,0,22.006,80.494-55.942,116.229C1281.404,1727.844,1218.674,1676.077,1193.262,1617.629z"/>
			<g>
				<path style="fill:#8B865C;" d="M886.894,2005.185L959.835,2165h279.929l-180.716-505.623l-368.541,0.445
					c-92.449,142.473-123.29,314.346-114.404,505.178h305.77L886.894,2005.185z"/>
				<path style="fill:#363E44;" d="M886.894,2006.185c-0.005,0-0.01,0-0.015,0c-0.552-0.008-0.993-0.462-0.985-1.015l0.916-63.17
					c0.006-0.38,0.226-0.724,0.568-0.888l42.113-20.141c0.499-0.238,1.095-0.027,1.334,0.471c0.238,0.499,0.027,1.096-0.471,1.334
					l-41.554,19.874l-0.907,62.55C887.886,2005.747,887.44,2006.185,886.894,2006.185z"/>
				<rect x="688.79" y="1606.58" style="fill:#8B865C;" width="370.258" height="62.817"/>
				<path style="fill:#363E44;" d="M942.409,1660.377H711.322c-0.553,0-1-0.448-1-1s0.447-1,1-1h231.087c0.553,0,1,0.448,1,1
					S942.962,1660.377,942.409,1660.377z"/>
			</g>
		</g>
		<g>
			<g>
				<path style="fill:#363E44;" d="M2144.58,1035.101H1659.6c-0.553,0-1-0.448-1-1v-98.356c0-0.552,0.447-1,1-1h484.98
					c0.553,0,1,0.448,1,1v98.356C2145.58,1034.653,2145.133,1035.101,2144.58,1035.101z M1660.6,1033.101h482.98v-96.356H1660.6
					V1033.101z"/>
				<rect x="1689.141" y="948.617" style="fill:#D87355;" width="147.71" height="71.284"/>
				<path style="fill:#363E44;" d="M1856.084,1021.039c-0.553,0-1-0.448-1-1v-20.053c0-0.552,0.447-1,1-1s1,0.448,1,1v20.053
					C1857.084,1020.591,1856.637,1021.039,1856.084,1021.039z"/>
				<path style="fill:#363E44;" d="M1856.084,981.247c-0.553,0-1-0.448-1-1v-31.63c0-0.552,0.447-1,1-1s1,0.448,1,1v31.63
					C1857.084,980.799,1856.637,981.247,1856.084,981.247z"/>
				<path style="fill:#363E44;" d="M1879.059,1021.039c-0.553,0-1-0.448-1-1V984.26c0-0.552,0.447-1,1-1s1,0.448,1,1v35.779
					C1880.059,1020.591,1879.611,1021.039,1879.059,1021.039z"/>
				<path style="fill:#363E44;" d="M1879.059,963.151c-0.553,0-1-0.448-1-1v-13.534c0-0.552,0.447-1,1-1s1,0.448,1,1v13.534
					C1880.059,962.703,1879.611,963.151,1879.059,963.151z"/>
				<path style="fill:#363E44;" d="M1902.033,1021.039c-0.553,0-1-0.448-1-1v-20.053c0-0.552,0.447-1,1-1s1,0.448,1,1v20.053
					C1903.033,1020.591,1902.586,1021.039,1902.033,1021.039z"/>
				<path style="fill:#363E44;" d="M1902.033,973.511c-0.553,0-1-0.448-1-1v-23.894c0-0.552,0.447-1,1-1s1,0.448,1,1v23.894
					C1903.033,973.063,1902.586,973.511,1902.033,973.511z"/>
				<path style="fill:#363E44;" d="M1925.009,1021.039c-0.553,0-1-0.448-1-1v-39.791c0-0.552,0.447-1,1-1s1,0.448,1,1v39.791
					C1926.009,1020.591,1925.562,1021.039,1925.009,1021.039z"/>
				<path style="fill:#363E44;" d="M1925.009,965.433c-0.553,0-1-0.448-1-1v-15.816c0-0.552,0.447-1,1-1s1,0.448,1,1v15.816
					C1926.009,964.985,1925.562,965.433,1925.009,965.433z"/>
				<path style="fill:#363E44;" d="M1947.983,1021.039c-0.553,0-1-0.448-1-1v-13.684c0-0.552,0.447-1,1-1s1,0.448,1,1v13.684
					C1948.983,1020.591,1948.536,1021.039,1947.983,1021.039z"/>
				<path style="fill:#363E44;" d="M1947.983,981.248c-0.553,0-1-0.448-1-1v-31.631c0-0.552,0.447-1,1-1s1,0.448,1,1v31.631
					C1948.983,980.8,1948.536,981.248,1947.983,981.248z"/>
				<path style="fill:#363E44;" d="M1970.958,1021.039c-0.553,0-1-0.448-1-1v-42.385c0-0.552,0.447-1,1-1s1,0.448,1,1v42.385
					C1971.958,1020.591,1971.511,1021.039,1970.958,1021.039z"/>
				<path style="fill:#363E44;" d="M1970.958,963.151c-0.553,0-1-0.448-1-1v-13.534c0-0.552,0.447-1,1-1s1,0.448,1,1v13.534
					C1971.958,962.703,1971.511,963.151,1970.958,963.151z"/>
			</g>
			<g>
				<path style="fill:#363E44;" d="M2144.58,1142.74H1659.6c-0.553,0-1-0.448-1-1v-98.356c0-0.552,0.447-1,1-1h484.98
					c0.553,0,1,0.448,1,1v98.356C2145.58,1142.292,2145.133,1142.74,2144.58,1142.74z M1660.6,1140.74h482.98v-96.356H1660.6
					V1140.74z"/>
				<rect x="1689.141" y="1056.256" style="fill:#D87355;" width="147.71" height="71.284"/>
				<path style="fill:#363E44;" d="M1856.084,1128.678c-0.553,0-1-0.448-1-1v-20.052c0-0.552,0.447-1,1-1s1,0.448,1,1v20.052
					C1857.084,1128.23,1856.637,1128.678,1856.084,1128.678z"/>
				<path style="fill:#363E44;" d="M1856.084,1088.886c-0.553,0-1-0.448-1-1v-31.63c0-0.552,0.447-1,1-1s1,0.448,1,1v31.63
					C1857.084,1088.439,1856.637,1088.886,1856.084,1088.886z"/>
				<path style="fill:#363E44;" d="M1879.059,1128.678c-0.553,0-1-0.448-1-1v-35.779c0-0.552,0.447-1,1-1s1,0.448,1,1v35.779
					C1880.059,1128.23,1879.611,1128.678,1879.059,1128.678z"/>
				<path style="fill:#363E44;" d="M1879.059,1070.79c-0.553,0-1-0.448-1-1v-13.534c0-0.552,0.447-1,1-1s1,0.448,1,1v13.534
					C1880.059,1070.342,1879.611,1070.79,1879.059,1070.79z"/>
				<path style="fill:#363E44;" d="M1902.033,1128.678c-0.553,0-1-0.448-1-1v-20.052c0-0.552,0.447-1,1-1s1,0.448,1,1v20.052
					C1903.033,1128.23,1902.586,1128.678,1902.033,1128.678z"/>
				<path style="fill:#363E44;" d="M1902.033,1081.15c-0.553,0-1-0.448-1-1v-23.894c0-0.552,0.447-1,1-1s1,0.448,1,1v23.894
					C1903.033,1080.702,1902.586,1081.15,1902.033,1081.15z"/>
				<path style="fill:#363E44;" d="M1925.009,1128.678c-0.553,0-1-0.448-1-1v-39.791c0-0.552,0.447-1,1-1s1,0.448,1,1v39.791
					C1926.009,1128.23,1925.562,1128.678,1925.009,1128.678z"/>
				<path style="fill:#363E44;" d="M1925.009,1073.073c-0.553,0-1-0.448-1-1v-15.816c0-0.552,0.447-1,1-1s1,0.448,1,1v15.816
					C1926.009,1072.625,1925.562,1073.073,1925.009,1073.073z"/>
				<path style="fill:#363E44;" d="M1947.983,1128.678c-0.553,0-1-0.448-1-1v-13.684c0-0.552,0.447-1,1-1s1,0.448,1,1v13.684
					C1948.983,1128.23,1948.536,1128.678,1947.983,1128.678z"/>
				<path style="fill:#363E44;" d="M1947.983,1088.887c-0.553,0-1-0.448-1-1v-31.631c0-0.552,0.447-1,1-1s1,0.448,1,1v31.631
					C1948.983,1088.44,1948.536,1088.887,1947.983,1088.887z"/>
				<path style="fill:#363E44;" d="M1970.958,1128.678c-0.553,0-1-0.448-1-1v-42.385c0-0.552,0.447-1,1-1s1,0.448,1,1v42.385
					C1971.958,1128.23,1971.511,1128.678,1970.958,1128.678z"/>
				<path style="fill:#363E44;" d="M1970.958,1070.79c-0.553,0-1-0.448-1-1v-13.534c0-0.552,0.447-1,1-1s1,0.448,1,1v13.534
					C1971.958,1070.342,1971.511,1070.79,1970.958,1070.79z"/>
			</g>
			<g>
				<path style="fill:#363E44;" d="M2144.58,1250.38H1659.6c-0.553,0-1-0.448-1-1v-98.357c0-0.552,0.447-1,1-1h484.98
					c0.553,0,1,0.448,1,1v98.357C2145.58,1249.932,2145.133,1250.38,2144.58,1250.38z M1660.6,1248.38h482.98v-96.357H1660.6
					V1248.38z"/>
				<rect x="1689.141" y="1163.896" style="fill:#D87355;" width="147.71" height="71.284"/>
				<path style="fill:#363E44;" d="M1856.084,1236.317c-0.553,0-1-0.448-1-1v-20.052c0-0.552,0.447-1,1-1s1,0.448,1,1v20.052
					C1857.084,1235.869,1856.637,1236.317,1856.084,1236.317z"/>
				<path style="fill:#363E44;" d="M1856.084,1196.526c-0.553,0-1-0.448-1-1v-31.63c0-0.552,0.447-1,1-1s1,0.448,1,1v31.63
					C1857.084,1196.078,1856.637,1196.526,1856.084,1196.526z"/>
				<path style="fill:#363E44;" d="M1879.059,1236.317c-0.553,0-1-0.448-1-1v-35.778c0-0.552,0.447-1,1-1s1,0.448,1,1v35.778
					C1880.059,1235.869,1879.611,1236.317,1879.059,1236.317z"/>
				<path style="fill:#363E44;" d="M1879.059,1178.429c-0.553,0-1-0.448-1-1v-13.533c0-0.552,0.447-1,1-1s1,0.448,1,1v13.533
					C1880.059,1177.981,1879.611,1178.429,1879.059,1178.429z"/>
				<path style="fill:#363E44;" d="M1902.033,1236.317c-0.553,0-1-0.448-1-1v-20.052c0-0.552,0.447-1,1-1s1,0.448,1,1v20.052
					C1903.033,1235.869,1902.586,1236.317,1902.033,1236.317z"/>
				<path style="fill:#363E44;" d="M1902.033,1188.79c-0.553,0-1-0.448-1-1v-23.894c0-0.552,0.447-1,1-1s1,0.448,1,1v23.894
					C1903.033,1188.342,1902.586,1188.79,1902.033,1188.79z"/>
				<path style="fill:#363E44;" d="M1925.009,1236.317c-0.553,0-1-0.448-1-1v-39.791c0-0.552,0.447-1,1-1s1,0.448,1,1v39.791
					C1926.009,1235.869,1925.562,1236.317,1925.009,1236.317z"/>
				<path style="fill:#363E44;" d="M1925.009,1180.712c-0.553,0-1-0.448-1-1v-15.816c0-0.552,0.447-1,1-1s1,0.448,1,1v15.816
					C1926.009,1180.264,1925.562,1180.712,1925.009,1180.712z"/>
				<path style="fill:#363E44;" d="M1947.983,1236.317c-0.553,0-1-0.448-1-1v-13.683c0-0.552,0.447-1,1-1s1,0.448,1,1v13.683
					C1948.983,1235.869,1948.536,1236.317,1947.983,1236.317z"/>
				<path style="fill:#363E44;" d="M1947.983,1196.527c-0.553,0-1-0.448-1-1v-31.631c0-0.552,0.447-1,1-1s1,0.448,1,1v31.631
					C1948.983,1196.079,1948.536,1196.527,1947.983,1196.527z"/>
				<path style="fill:#363E44;" d="M1970.958,1236.317c-0.553,0-1-0.448-1-1v-42.384c0-0.552,0.447-1,1-1s1,0.448,1,1v42.384
					C1971.958,1235.869,1971.511,1236.317,1970.958,1236.317z"/>
				<path style="fill:#363E44;" d="M1970.958,1178.429c-0.553,0-1-0.448-1-1v-13.533c0-0.552,0.447-1,1-1s1,0.448,1,1v13.533
					C1971.958,1177.981,1971.511,1178.429,1970.958,1178.429z"/>
			</g>
		</g>
	</g>
</g>
</svg>
